<?xml version="1.0" encoding="UTF-8" standalone="no"?>
<!DOCTYPE svg PUBLIC "-//W3C//DTD SVG 1.1//EN"
 "http://www.w3.org/Graphics/SVG/1.1/DTD/svg11.dtd">
<!-- Generated by graphviz version 2.38.0 (20140413.2041)
 -->
<!-- Title: G Pages: 1 -->
<svg width="466pt" height="322pt"
 viewBox="0.00 0.00 465.58 322.00" xmlns="http://www.w3.org/2000/svg" xmlns:xlink="http://www.w3.org/1999/xlink">
<g id="graph0" class="graph" transform="scale(1 1) rotate(0) translate(4 318)">
<title>G</title>
<polygon fill="white" stroke="none" points="-4,4 -4,-318 461.58,-318 461.58,4 -4,4"/>
<g id="clust1" class="cluster"><title>cluster_Global</title>
<path fill="none" stroke="gray" d="M291.58,-8C291.58,-8 437.58,-8 437.58,-8 443.58,-8 449.58,-14 449.58,-20 449.58,-20 449.58,-294 449.58,-294 449.58,-300 443.58,-306 437.58,-306 437.58,-306 291.58,-306 291.58,-306 285.58,-306 279.58,-300 279.58,-294 279.58,-294 279.58,-20 279.58,-20 279.58,-14 285.58,-8 291.58,-8"/>
<text text-anchor="middle" x="364.58" y="-293.2" font-family="Times,serif" font-size="11.00" fill="gray">Global</text>
</g>
<g id="clust2" class="cluster"><title>cluster_\Chadicus</title>
<path fill="none" stroke="gray" d="M299.58,-16C299.58,-16 429.58,-16 429.58,-16 435.58,-16 441.58,-22 441.58,-28 441.58,-28 441.58,-266 441.58,-266 441.58,-272 435.58,-278 429.58,-278 429.58,-278 299.58,-278 299.58,-278 293.58,-278 287.58,-272 287.58,-266 287.58,-266 287.58,-28 287.58,-28 287.58,-22 293.58,-16 299.58,-16"/>
<text text-anchor="middle" x="364.58" y="-265.2" font-family="Times,serif" font-size="11.00" fill="gray">Chadicus</text>
</g>
<g id="clust3" class="cluster"><title>cluster_\Chadicus\Util</title>
<path fill="none" stroke="gray" d="M330.08,-178C330.08,-178 399.08,-178 399.08,-178 405.08,-178 411.08,-184 411.08,-190 411.08,-190 411.08,-238 411.08,-238 411.08,-244 405.08,-250 399.08,-250 399.08,-250 330.08,-250 330.08,-250 324.08,-250 318.08,-244 318.08,-238 318.08,-238 318.08,-190 318.08,-190 318.08,-184 324.08,-178 330.08,-178"/>
<text text-anchor="middle" x="364.58" y="-237.2" font-family="Times,serif" font-size="11.00" fill="gray">Util</text>
</g>
<!-- \\Chadicus\\Util\\Exception -->
<g id="node1" class="node"><title>\\Chadicus\\Util\\Exception</title>
<polygon fill="none" stroke="black" points="403.08,-222 326.08,-222 326.08,-186 403.08,-186 403.08,-222"/>
<text text-anchor="middle" x="364.58" y="-201.2" font-family="Courier,monospace" font-size="11.00">Exception</text>
</g>
<!-- \\Chadicus\\NullValueException -->
<g id="node2" class="node"><title>\\Chadicus\\NullValueException</title>
<polygon fill="none" stroke="black" points="433.58,-168 295.58,-168 295.58,-132 433.58,-132 433.58,-168"/>
<text text-anchor="middle" x="364.58" y="-147.2" font-family="Courier,monospace" font-size="11.00">NullValueException</text>
</g>
<!-- \\UnexpectedValueException -->
<g id="node5" class="node"><title>\\UnexpectedValueException</title>
<ellipse fill="none" stroke="black" cx="111.79" cy="-150" rx="111.581" ry="18"/>
<text text-anchor="middle" x="111.79" y="-146.3" font-family="Times,serif" font-size="14.00" fill="gray">\UnexpectedValueException</text>
</g>
<!-- \\Chadicus\\NullValueException&#45;&gt;\\UnexpectedValueException -->
<g id="edge1" class="edge"><title>\\Chadicus\\NullValueException&#45;&gt;\\UnexpectedValueException</title>
<path fill="none" stroke="black" d="M295.382,-150C276.349,-150 255.079,-150 233.968,-150"/>
<polygon fill="none" stroke="black" points="233.96,-146.5 223.96,-150 233.96,-153.5 233.96,-146.5"/>
</g>
<!-- \\Chadicus\\NotFoundException -->
<g id="node3" class="node"><title>\\Chadicus\\NotFoundException</title>
<polygon fill="none" stroke="black" points="430.08,-114 299.08,-114 299.08,-78 430.08,-78 430.08,-114"/>
<text text-anchor="middle" x="364.58" y="-93.2" font-family="Courier,monospace" font-size="11.00">NotFoundException</text>
</g>
<!-- \\RuntimeException -->
<g id="node6" class="node"><title>\\RuntimeException</title>
<ellipse fill="none" stroke="black" cx="111.79" cy="-96" rx="79.0865" ry="18"/>
<text text-anchor="middle" x="111.79" y="-92.3" font-family="Times,serif" font-size="14.00" fill="gray">\RuntimeException</text>
</g>
<!-- \\Chadicus\\NotFoundException&#45;&gt;\\RuntimeException -->
<g id="edge2" class="edge"><title>\\Chadicus\\NotFoundException&#45;&gt;\\RuntimeException</title>
<path fill="none" stroke="black" d="M298.995,-96C269.399,-96 233.839,-96 201.761,-96"/>
<polygon fill="none" stroke="black" points="201.48,-92.5001 191.48,-96 201.48,-99.5001 201.48,-92.5001"/>
</g>
<!-- \\Chadicus\\FormatException -->
<g id="node4" class="node"><title>\\Chadicus\\FormatException</title>
<polygon fill="none" stroke="black" points="423.58,-60 305.58,-60 305.58,-24 423.58,-24 423.58,-60"/>
<text text-anchor="middle" x="364.58" y="-39.2" font-family="Courier,monospace" font-size="11.00">FormatException</text>
</g>
<!-- \\InvalidArgumentException -->
<g id="node7" class="node"><title>\\InvalidArgumentException</title>
<ellipse fill="none" stroke="black" cx="111.79" cy="-42" rx="109.681" ry="18"/>
<text text-anchor="middle" x="111.79" y="-38.3" font-family="Times,serif" font-size="14.00" fill="gray">\InvalidArgumentException</text>
</g>
<!-- \\Chadicus\\FormatException&#45;&gt;\\InvalidArgumentException -->
<g id="edge3" class="edge"><title>\\Chadicus\\FormatException&#45;&gt;\\InvalidArgumentException</title>
<path fill="none" stroke="black" d="M305.414,-42C283.442,-42 257.561,-42 232.021,-42"/>
<polygon fill="none" stroke="black" points="231.878,-38.5001 221.878,-42 231.878,-45.5001 231.878,-38.5001"/>
</g>
</g>
</svg>
