<?xml version="1.0" encoding="UTF-8" standalone="no"?>
<!DOCTYPE svg PUBLIC "-//W3C//DTD SVG 1.1//EN"
 "http://www.w3.org/Graphics/SVG/1.1/DTD/svg11.dtd">
<!-- Generated by graphviz version 2.26.3 (20100126.1600)
 -->
<!-- Title: G Pages: 1 -->
<svg width="126pt" height="174pt"
 viewBox="0.00 0.00 126.00 174.00" xmlns="http://www.w3.org/2000/svg" xmlns:xlink="http://www.w3.org/1999/xlink">
<g id="graph1" class="graph" transform="scale(1 1) rotate(0) translate(4 170)">
<title>G</title>
<polygon fill="white" stroke="white" points="-4,5 -4,-170 123,-170 123,5 -4,5"/>
<g id="graph2" class="cluster"><title>cluster_Global</title>
<polyline fill="none" stroke="gray" points="20,-8 98,-8 "/>
<path fill="none" stroke="gray" d="M98,-8C104,-8 110,-14 110,-20"/>
<polyline fill="none" stroke="gray" points="110,-20 110,-146 "/>
<path fill="none" stroke="gray" d="M110,-146C110,-152 104,-158 98,-158"/>
<polyline fill="none" stroke="gray" points="98,-158 20,-158 "/>
<path fill="none" stroke="gray" d="M20,-158C14,-158 8,-152 8,-146"/>
<polyline fill="none" stroke="gray" points="8,-146 8,-20 "/>
<path fill="none" stroke="gray" d="M8,-20C8,-14 14,-8 20,-8"/>
<text text-anchor="middle" x="59" y="-144.1" font-family="Times Roman,serif" font-size="11.00" fill="gray">Global</text>
</g>
<g id="graph3" class="cluster"><title>cluster_\Chadicus</title>
<polyline fill="none" stroke="gray" points="28,-16 90,-16 "/>
<path fill="none" stroke="gray" d="M90,-16C96,-16 102,-22 102,-28"/>
<polyline fill="none" stroke="gray" points="102,-28 102,-116 "/>
<path fill="none" stroke="gray" d="M102,-116C102,-122 96,-128 90,-128"/>
<polyline fill="none" stroke="gray" points="90,-128 28,-128 "/>
<path fill="none" stroke="gray" d="M28,-128C22,-128 16,-122 16,-116"/>
<polyline fill="none" stroke="gray" points="16,-116 16,-28 "/>
<path fill="none" stroke="gray" d="M16,-28C16,-22 22,-16 28,-16"/>
<text text-anchor="middle" x="59" y="-114.1" font-family="Times Roman,serif" font-size="11.00" fill="gray">Chadicus</text>
</g>
<g id="graph4" class="cluster"><title>cluster_\Chadicus\Exception</title>
<polyline fill="none" stroke="gray" points="36,-24 82,-24 "/>
<path fill="none" stroke="gray" d="M82,-24C88,-24 94,-30 94,-36"/>
<polyline fill="none" stroke="gray" points="94,-36 94,-86 "/>
<path fill="none" stroke="gray" d="M94,-86C94,-92 88,-98 82,-98"/>
<polyline fill="none" stroke="gray" points="82,-98 36,-98 "/>
<path fill="none" stroke="gray" d="M36,-98C30,-98 24,-92 24,-86"/>
<polyline fill="none" stroke="gray" points="24,-86 24,-36 "/>
<path fill="none" stroke="gray" d="M24,-36C24,-30 30,-24 36,-24"/>
<text text-anchor="middle" x="59" y="-84.1" font-family="Times Roman,serif" font-size="11.00" fill="gray">Exception</text>
</g>
<!-- \\Chadicus\\Exception\\Util -->
<g id="node4" class="node"><title>\\Chadicus\\Exception\\Util</title>
<polygon fill="none" stroke="black" points="86,-68 32,-68 32,-32 86,-32 86,-68"/>
<text text-anchor="middle" x="59" y="-47.1" font-family="Times Roman,serif" font-size="11.00">Util</text>
</g>
</g>
</svg>
