<?xml version="1.0" encoding="UTF-8" standalone="no"?>
<!DOCTYPE svg PUBLIC "-//W3C//DTD SVG 1.1//EN"
 "http://www.w3.org/Graphics/SVG/1.1/DTD/svg11.dtd">
<!-- Generated by graphviz version 2.26.3 (20100126.1600)
 -->
<!-- Title: G Pages: 1 -->
<svg width="374pt" height="282pt"
 viewBox="0.00 0.00 374.00 282.00" xmlns="http://www.w3.org/2000/svg" xmlns:xlink="http://www.w3.org/1999/xlink">
<g id="graph1" class="graph" transform="scale(1 1) rotate(0) translate(4 278)">
<title>G</title>
<polygon fill="white" stroke="white" points="-4,5 -4,-278 371,-278 371,5 -4,5"/>
<g id="graph2" class="cluster"><title>cluster_Global</title>
<polyline fill="none" stroke="gray" points="184,-8 346,-8 "/>
<path fill="none" stroke="gray" d="M346,-8C352,-8 358,-14 358,-20"/>
<polyline fill="none" stroke="gray" points="358,-20 358,-254 "/>
<path fill="none" stroke="gray" d="M358,-254C358,-260 352,-266 346,-266"/>
<polyline fill="none" stroke="gray" points="346,-266 184,-266 "/>
<path fill="none" stroke="gray" d="M184,-266C178,-266 172,-260 172,-254"/>
<polyline fill="none" stroke="gray" points="172,-254 172,-20 "/>
<path fill="none" stroke="gray" d="M172,-20C172,-14 178,-8 184,-8"/>
<text text-anchor="middle" x="265" y="-252.1" font-family="Times Roman,serif" font-size="11.00" fill="gray">Global</text>
</g>
<g id="graph3" class="cluster"><title>cluster_\Chadicus</title>
<polyline fill="none" stroke="gray" points="192,-16 338,-16 "/>
<path fill="none" stroke="gray" d="M338,-16C344,-16 350,-22 350,-28"/>
<polyline fill="none" stroke="gray" points="350,-28 350,-224 "/>
<path fill="none" stroke="gray" d="M350,-224C350,-230 344,-236 338,-236"/>
<polyline fill="none" stroke="gray" points="338,-236 192,-236 "/>
<path fill="none" stroke="gray" d="M192,-236C186,-236 180,-230 180,-224"/>
<polyline fill="none" stroke="gray" points="180,-224 180,-28 "/>
<path fill="none" stroke="gray" d="M180,-28C180,-22 186,-16 192,-16"/>
<text text-anchor="middle" x="265" y="-222.1" font-family="Times Roman,serif" font-size="11.00" fill="gray">Chadicus</text>
</g>
<g id="graph4" class="cluster"><title>cluster_\Chadicus\Exception</title>
<polyline fill="none" stroke="gray" points="200,-24 330,-24 "/>
<path fill="none" stroke="gray" d="M330,-24C336,-24 342,-30 342,-36"/>
<polyline fill="none" stroke="gray" points="342,-36 342,-194 "/>
<path fill="none" stroke="gray" d="M342,-194C342,-200 336,-206 330,-206"/>
<polyline fill="none" stroke="gray" points="330,-206 200,-206 "/>
<path fill="none" stroke="gray" d="M200,-206C194,-206 188,-200 188,-194"/>
<polyline fill="none" stroke="gray" points="188,-194 188,-36 "/>
<path fill="none" stroke="gray" d="M188,-36C188,-30 194,-24 200,-24"/>
<text text-anchor="middle" x="265" y="-192.1" font-family="Times Roman,serif" font-size="11.00" fill="gray">Exception</text>
</g>
<!-- \\Chadicus\\Exception\\Util -->
<g id="node4" class="node"><title>\\Chadicus\\Exception\\Util</title>
<polygon fill="none" stroke="black" points="292,-176 238,-176 238,-140 292,-140 292,-176"/>
<text text-anchor="middle" x="265" y="-155.1" font-family="Times Roman,serif" font-size="11.00">Util</text>
</g>
<!-- \\Chadicus\\Exception\\NotFoundException -->
<g id="node5" class="node"><title>\\Chadicus\\Exception\\NotFoundException</title>
<polygon fill="none" stroke="black" points="326,-122 204,-122 204,-86 326,-86 326,-122"/>
<text text-anchor="middle" x="265" y="-101.1" font-family="Times Roman,serif" font-size="11.00">NotFoundException</text>
</g>
<!-- \\Exception -->
<g id="node8" class="node"><title>\\Exception</title>
<ellipse fill="none" stroke="black" cx="62" cy="-77" rx="62.2254" ry="18.3848"/>
<text text-anchor="middle" x="62" y="-73.4" font-family="Times Roman,serif" font-size="14.00" fill="gray">\Exception</text>
</g>
<!-- \\Chadicus\\Exception\\NotFoundException&#45;&gt;\\Exception -->
<g id="edge5" class="edge"><title>\\Chadicus\\Exception\\NotFoundException&#45;&gt;\\Exception</title>
<path fill="none" stroke="black" d="M203.266,-95.7891C179.689,-92.6532 152.711,-89.065 128.692,-85.8704"/>
<polygon fill="none" stroke="black" points="128.972,-82.3769 118.598,-84.5278 128.049,-89.3158 128.972,-82.3769"/>
</g>
<!-- \\Chadicus\\Exception\\BadPropertyException -->
<g id="node6" class="node"><title>\\Chadicus\\Exception\\BadPropertyException</title>
<polygon fill="none" stroke="black" points="333,-68 197,-68 197,-32 333,-32 333,-68"/>
<text text-anchor="middle" x="265" y="-47.1" font-family="Times Roman,serif" font-size="11.00">BadPropertyException</text>
</g>
<!-- \\Chadicus\\Exception\\BadPropertyException&#45;&gt;\\Exception -->
<g id="edge7" class="edge"><title>\\Chadicus\\Exception\\BadPropertyException&#45;&gt;\\Exception</title>
<path fill="none" stroke="black" d="M196.273,-59.141C174.428,-62.0465 150.314,-65.2538 128.62,-68.1393"/>
<polygon fill="none" stroke="black" points="127.964,-64.6955 118.513,-69.4835 128.887,-71.6344 127.964,-64.6955"/>
</g>
</g>
</svg>
